# xmcd
#
# Track frame offsets:
#	150
#	24904
#	39695
#	66637
#	93902
#	107448
#	130285
#	149968
#	165181
#	186994
#	191500
#	218661
#	242594
#
# Disc length: 3580 seconds
#
# Revision: 10
# Processed by: cddbd v1.5.2PL0 Copyright (c) Steve Scherf et al.
# Submitted via: EZCDAudioConverter 2.1.7.1
#
DISCID=b80dfa0d
DTITLE=Electric Light Orchestra - No Answer
DYEAR=1972
DGENRE=
TTITLE0=10538 Overture
TTITLE1=Look At Me Now
TTITLE2=Nellie Takes Her Bow
TTITLE3=The Battle Of Marston Moor (July 2nd 1644)
TTITLE4=First Movement (Jumping Biz)
TTITLE5=Mr. Radio
TTITLE6=Manhattan Rumble (49th Street Massacre)
TTITLE7=Queen Of The Hours
TTITLE8=Whisper In The Night
TTITLE9=Battle Of Marston Moor [Take 1/Alternate Mix]
TTITLE10=Nellie Takes Her Bow [Alternate Mix]
TTITLE11=Mr. Radio [Take 9]
TTITLE12=10538 Overture [Take 1/Alternate Mix]
EXTD=
EXTT0=
EXTT1=
EXTT2=
EXTT3=
EXTT4=
EXTT5=
EXTT6=
EXTT7=
EXTT8=
EXTT9=
EXTT10=
EXTT11=
EXTT12=
PLAYORDER=
